<svg width="100" height="89" viewBox="0 0 100 89" fill="none" xmlns="http://www.w3.org/2000/svg">
<path d="M17.8256 55.5949H10.9789V73.3601H6.84671V55.5949H0V51.9453H17.8256V55.5949Z" fill="#808080"/>
<path d="M20.484 73.3601V51.9453H29.9548C30.9401 51.9453 31.845 52.1464 32.6694 52.5485C33.5139 52.9507 34.2378 53.4936 34.841 54.1773C35.4644 54.8609 35.9369 55.625 36.2586 56.4696C36.6005 57.3141 36.7714 58.1787 36.7714 59.0635C36.7714 59.9683 36.6105 60.843 36.2888 61.6875C35.9872 62.512 35.5448 63.2358 34.9617 63.8592C34.3785 64.4825 33.6949 64.9651 32.9107 65.307L37.7969 73.3601H33.2123L28.8087 66.1816H24.6464V73.3601H20.484ZM24.6464 62.5321H29.8643C30.3871 62.5321 30.8496 62.3813 31.2518 62.0797C31.6539 61.7579 31.9757 61.3357 32.217 60.8129C32.4583 60.2901 32.5789 59.7069 32.5789 59.0635C32.5789 58.3798 32.4381 57.7866 32.1566 57.2839C31.8751 56.7611 31.5132 56.3489 31.0708 56.0473C30.6485 55.7457 30.1861 55.5949 29.6834 55.5949H24.6464V62.5321Z" fill="#808080"/>
<path d="M55.4125 69.7106V73.3601H40.5428V51.9453H55.141V55.5949H44.7051V60.7525H53.7234V64.1306H44.7051V69.7106H55.4125Z" fill="#808080"/>
<path d="M62.8198 59.6064V73.3601H58.6575V51.9453H61.9753L73.0446 66.061V51.9755H77.2069V73.3601H73.7383L62.8198 59.6064Z" fill="#808080"/>
<path d="M81.6617 73.3601V51.9453H89.4434C91.7759 51.9453 93.7264 52.4279 95.2948 53.3931C96.8632 54.3381 98.0395 55.625 98.8237 57.2538C99.6079 58.8624 100 60.652 100 62.6226C100 64.7942 99.5677 66.6843 98.703 68.293C97.8384 69.9016 96.6118 71.1483 95.0233 72.033C93.4549 72.9178 91.5949 73.3601 89.4434 73.3601H81.6617ZM95.8075 62.6226C95.8075 61.2351 95.5562 60.0186 95.0535 58.973C94.5508 57.9073 93.8269 57.0829 92.8818 56.4997C91.9368 55.8965 90.7906 55.5949 89.4434 55.5949H85.824V69.7106H89.4434C90.8107 69.7106 91.9669 69.4089 92.912 68.8057C93.8571 68.1824 94.5709 67.3378 95.0535 66.2721C95.5562 65.1863 95.8075 63.9698 95.8075 62.6226Z" fill="#808080"/>
<path d="M7.09516 84.6205V88.441H5.93896V82.4924H6.86057L9.93539 86.4135V82.5008H11.0916V88.441H10.1281L7.09516 84.6205Z" fill="#808080"/>
<path d="M14.8676 88.4829C14.432 88.4829 14.0354 88.3991 13.6779 88.2315C13.326 88.064 13.0216 87.8378 12.7647 87.5529C12.5133 87.2624 12.3178 86.9385 12.1782 86.581C12.0386 86.218 11.9687 85.8465 11.9687 85.4667C11.9687 85.0701 12.0414 84.6931 12.1866 84.3356C12.3374 83.9726 12.5413 83.6514 12.7982 83.3721C13.0607 83.0873 13.3679 82.8639 13.7198 82.7019C14.0773 82.5343 14.4683 82.4505 14.8928 82.4505C15.3228 82.4505 15.7138 82.5371 16.0657 82.7103C16.4232 82.8834 16.7276 83.1152 16.9789 83.4057C17.2303 83.6961 17.4258 84.0201 17.5654 84.3775C17.7051 84.735 17.7749 85.1037 17.7749 85.4835C17.7749 85.8745 17.7023 86.2515 17.557 86.6145C17.4118 86.972 17.208 87.2932 16.9454 87.578C16.6885 87.8573 16.3813 88.0779 16.0238 88.2399C15.6719 88.4019 15.2865 88.4829 14.8676 88.4829ZM13.1417 85.4667C13.1417 85.7236 13.1808 85.9722 13.259 86.2124C13.3372 86.4526 13.4489 86.6676 13.5941 86.8575C13.7449 87.0418 13.9265 87.1898 14.1387 87.3015C14.3566 87.4077 14.6023 87.4607 14.876 87.4607C15.1553 87.4607 15.4038 87.4049 15.6217 87.2932C15.8395 87.1759 16.021 87.0223 16.1663 86.8324C16.3115 86.6369 16.4204 86.4218 16.493 86.1872C16.5712 85.9471 16.6103 85.7069 16.6103 85.4667C16.6103 85.2098 16.5684 84.964 16.4846 84.7294C16.4064 84.4892 16.2919 84.277 16.1411 84.0927C15.9959 83.9028 15.8144 83.7548 15.5965 83.6486C15.3843 83.5369 15.1441 83.4811 14.876 83.4811C14.5911 83.4811 14.3398 83.5397 14.122 83.657C13.9097 83.7687 13.731 83.9195 13.5858 84.1094C13.4405 84.2993 13.3288 84.5116 13.2506 84.7462C13.178 84.9808 13.1417 85.2209 13.1417 85.4667Z" fill="#808080"/>
<path d="M19.0443 82.4924L20.6529 87.067L22.2448 82.4924H23.4597L21.2059 88.441H20.0916L17.8295 82.4924H19.0443Z" fill="#808080"/>
<path d="M25.2288 82.4924H26.4018L28.5885 88.441H27.3988L26.8458 86.958H24.768L24.2235 88.441H23.0337L25.2288 82.4924ZM26.6364 86.1453L25.8153 83.6905L24.9607 86.1453H26.6364Z" fill="#808080"/>
<path d="M30.6316 85.4248C30.6316 85.0618 30.6959 84.7071 30.8243 84.3608C30.9584 84.0089 31.1511 83.6905 31.4024 83.4057C31.6538 83.1152 31.961 82.8862 32.324 82.7186C32.6871 82.5455 33.1004 82.4589 33.564 82.4589C34.1114 82.4589 34.5834 82.579 34.98 82.8192C35.3821 83.0594 35.6809 83.3721 35.8764 83.7575L34.9883 84.3692C34.8878 84.1457 34.7565 83.9698 34.5946 83.8413C34.4326 83.7073 34.2594 83.6151 34.0751 83.5648C33.8908 83.509 33.7093 83.4811 33.5305 83.4811C33.2401 83.4811 32.9859 83.5397 32.7681 83.657C32.5558 83.7743 32.3771 83.9279 32.2319 84.1178C32.0867 84.3077 31.9777 84.52 31.9051 84.7546C31.8381 84.9891 31.8046 85.2237 31.8046 85.4583C31.8046 85.7209 31.8465 85.975 31.9303 86.2208C32.0141 86.4609 32.1313 86.676 32.2822 86.8659C32.4386 87.0502 32.6229 87.1982 32.8351 87.3099C33.053 87.4161 33.2903 87.4691 33.5473 87.4691C33.7316 87.4691 33.9187 87.4384 34.1086 87.377C34.2985 87.3155 34.4745 87.2178 34.6364 87.0837C34.7984 86.9497 34.9241 86.7765 35.0135 86.5643L35.9602 87.1088C35.8429 87.4049 35.6502 87.6562 35.3821 87.8629C35.1196 88.0696 34.8236 88.2259 34.494 88.3321C34.1645 88.4382 33.8377 88.4913 33.5138 88.4913C33.0893 88.4913 32.7011 88.4047 32.3492 88.2315C31.9973 88.0528 31.6929 87.8182 31.436 87.5278C31.1846 87.2317 30.9863 86.9022 30.8411 86.5391C30.7015 86.1705 30.6316 85.799 30.6316 85.4248Z" fill="#808080"/>
<path d="M38.2708 82.4924H39.4437L41.6305 88.441H40.4407L39.8878 86.958H37.81L37.2654 88.441H36.0757L38.2708 82.4924ZM39.6783 86.1453L38.8573 83.6905L38.0027 86.1453H39.6783Z" fill="#808080"/>
<path d="M42.2829 88.441V82.4924H44.9137C45.1874 82.4924 45.4387 82.5483 45.6677 82.66C45.9023 82.7717 46.1034 82.9225 46.271 83.1124C46.4441 83.3023 46.5754 83.5146 46.6647 83.7492C46.7597 83.9838 46.8072 84.2239 46.8072 84.4697C46.8072 84.721 46.7625 84.964 46.6731 85.1986C46.5893 85.4276 46.4665 85.6287 46.3045 85.8018C46.1425 85.975 45.9526 86.109 45.7348 86.204L47.092 88.441H45.8185L44.5953 86.447H43.4391V88.441H42.2829ZM43.4391 85.4332H44.8885C45.0338 85.4332 45.1622 85.3913 45.2739 85.3075C45.3857 85.2182 45.475 85.1009 45.5421 84.9556C45.6091 84.8104 45.6426 84.6484 45.6426 84.4697C45.6426 84.2798 45.6035 84.115 45.5253 83.9754C45.4471 83.8302 45.3466 83.7157 45.2237 83.6319C45.1064 83.5481 44.9779 83.5062 44.8383 83.5062H43.4391V85.4332Z" fill="#808080"/>
<path d="M47.8548 88.441V82.4924H49.011V87.4272H52.0439V88.441H47.8548Z" fill="#808080"/>
<path d="M55.1552 88.4829C54.7196 88.4829 54.323 88.3991 53.9655 88.2315C53.6137 88.064 53.3092 87.8378 53.0523 87.5529C52.801 87.2624 52.6055 86.9385 52.4658 86.581C52.3262 86.218 52.2564 85.8465 52.2564 85.4667C52.2564 85.0701 52.329 84.6931 52.4742 84.3356C52.625 83.9726 52.8289 83.6514 53.0858 83.3721C53.3483 83.0873 53.6555 82.8639 54.0074 82.7019C54.3649 82.5343 54.7559 82.4505 55.1804 82.4505C55.6105 82.4505 56.0015 82.5371 56.3533 82.7103C56.7108 82.8834 57.0152 83.1152 57.2666 83.4057C57.5179 83.6961 57.7134 84.0201 57.853 84.3775C57.9927 84.735 58.0625 85.1037 58.0625 85.4835C58.0625 85.8745 57.9899 86.2515 57.8447 86.6145C57.6994 86.972 57.4956 87.2932 57.2331 87.578C56.9761 87.8573 56.6689 88.0779 56.3115 88.2399C55.9596 88.4019 55.5742 88.4829 55.1552 88.4829ZM53.4293 85.4667C53.4293 85.7236 53.4684 85.9722 53.5466 86.2124C53.6248 86.4526 53.7365 86.6676 53.8818 86.8575C54.0326 87.0418 54.2141 87.1898 54.4263 87.3015C54.6442 87.4077 54.8899 87.4607 55.1636 87.4607C55.4429 87.4607 55.6915 87.4049 55.9093 87.2932C56.1271 87.1759 56.3087 87.0223 56.4539 86.8324C56.5991 86.6369 56.708 86.4218 56.7806 86.1872C56.8588 85.9471 56.8979 85.7069 56.8979 85.4667C56.8979 85.2098 56.856 84.964 56.7723 84.7294C56.6941 84.4892 56.5796 84.277 56.4287 84.0927C56.2835 83.9028 56.102 83.7548 55.8842 83.6486C55.6719 83.5369 55.4317 83.4811 55.1636 83.4811C54.8788 83.4811 54.6274 83.5397 54.4096 83.657C54.1973 83.7687 54.0186 83.9195 53.8734 84.1094C53.7282 84.2993 53.6164 84.5116 53.5382 84.7462C53.4656 84.9808 53.4293 85.2209 53.4293 85.4667Z" fill="#808080"/>
<path d="M62.4689 84.0508C62.4298 84.0117 62.3572 83.9586 62.251 83.8916C62.1505 83.8246 62.0248 83.7603 61.874 83.6989C61.7288 83.6375 61.5696 83.5844 61.3965 83.5397C61.2233 83.4894 61.0474 83.4643 60.8686 83.4643C60.5558 83.4643 60.3185 83.523 60.1565 83.6403C60.0001 83.7575 59.9219 83.9223 59.9219 84.1346C59.9219 84.2965 59.9722 84.425 60.0727 84.52C60.1732 84.6149 60.324 84.6959 60.5251 84.7629C60.7262 84.83 60.9775 84.9026 61.2792 84.9808C61.6701 85.0757 62.0081 85.193 62.2929 85.3327C62.5834 85.4667 62.804 85.6454 62.9548 85.8689C63.1112 86.0867 63.1894 86.3771 63.1894 86.7402C63.1894 87.0586 63.1308 87.3323 63.0135 87.5613C62.8962 87.7847 62.7342 87.9662 62.5275 88.1059C62.3209 88.2455 62.0863 88.3488 61.8237 88.4159C61.5612 88.4773 61.282 88.508 60.9859 88.508C60.6899 88.508 60.3939 88.4773 60.0978 88.4159C59.8018 88.3544 59.5169 88.2678 59.2432 88.1561C58.9696 88.0388 58.7182 87.8992 58.4892 87.7372L59.0003 86.7402C59.0505 86.7905 59.1399 86.8575 59.2684 86.9413C59.3969 87.0195 59.5532 87.1005 59.7376 87.1843C59.9219 87.2625 60.123 87.3295 60.3408 87.3853C60.5586 87.4412 60.7793 87.4691 61.0027 87.4691C61.3155 87.4691 61.5529 87.4161 61.7148 87.3099C61.8768 87.2038 61.9578 87.053 61.9578 86.8575C61.9578 86.6788 61.8936 86.5391 61.7651 86.4386C61.6366 86.3381 61.4579 86.2515 61.2289 86.1789C60.9999 86.1007 60.729 86.0169 60.4162 85.9275C60.042 85.8214 59.7292 85.7041 59.4778 85.5756C59.2265 85.4416 59.0394 85.274 58.9165 85.0729C58.7936 84.8719 58.7322 84.6205 58.7322 84.3189C58.7322 83.9111 58.8271 83.5704 59.017 83.2967C59.2125 83.0175 59.475 82.808 59.8046 82.6684C60.1341 82.5232 60.5 82.4505 60.9021 82.4505C61.1814 82.4505 61.4439 82.4813 61.6897 82.5427C61.941 82.6041 62.1756 82.6851 62.3935 82.7857C62.6113 82.8862 62.8068 82.9951 62.98 83.1124L62.4689 84.0508Z" fill="#808080"/>
<path d="M68.5474 88.4829C68.162 88.4829 67.7962 88.4047 67.4499 88.2483C67.1092 88.0919 66.8075 87.8769 66.545 87.6032C66.2881 87.3239 66.087 86.9999 65.9418 86.6313C65.7966 86.2626 65.724 85.8633 65.724 85.4332C65.724 85.0255 65.7966 84.6429 65.9418 84.2854C66.087 83.9223 66.2909 83.6039 66.5534 83.3303C66.8159 83.0566 67.1231 82.8415 67.475 82.6851C67.8269 82.5287 68.2095 82.4505 68.6228 82.4505C69.1814 82.4505 69.6589 82.5706 70.0555 82.8108C70.4577 83.0454 70.7593 83.3582 70.9604 83.7492L70.0974 84.3859C69.9466 84.0899 69.7344 83.8637 69.4607 83.7073C69.1926 83.5509 68.8993 83.4727 68.5809 83.4727C68.3296 83.4727 68.1006 83.5257 67.8939 83.6319C67.6873 83.738 67.5085 83.8832 67.3577 84.0675C67.2069 84.2519 67.0896 84.4641 67.0058 84.7043C66.9276 84.9445 66.8885 85.1986 66.8885 85.4667C66.8885 85.7516 66.9304 86.0141 67.0142 86.2543C67.1036 86.4944 67.2265 86.7039 67.3829 86.8826C67.5448 87.0614 67.732 87.2038 67.9442 87.3099C68.1564 87.4105 68.391 87.4607 68.648 87.4607C68.9496 87.4607 69.2372 87.3825 69.5109 87.2261C69.7902 87.0697 70.0499 86.8407 70.2901 86.5391V87.6786C69.793 88.2148 69.2121 88.4829 68.5474 88.4829ZM70.2063 86.2291H69.0082V85.3829H71.1614V88.441H70.2063V86.2291Z" fill="#808080"/>
<path d="M74.6854 88.4829C74.2497 88.4829 73.8532 88.3991 73.4957 88.2315C73.1438 88.064 72.8394 87.8378 72.5825 87.5529C72.3311 87.2624 72.1356 86.9385 71.996 86.581C71.8564 86.218 71.7865 85.8465 71.7865 85.4667C71.7865 85.0701 71.8592 84.6931 72.0044 84.3356C72.1552 83.9726 72.3591 83.6514 72.616 83.3721C72.8785 83.0873 73.1857 82.8639 73.5376 82.7019C73.8951 82.5343 74.2861 82.4505 74.7106 82.4505C75.1406 82.4505 75.5316 82.5371 75.8835 82.7103C76.241 82.8834 76.5454 83.1152 76.7967 83.4057C77.0481 83.6961 77.2436 84.0201 77.3832 84.3775C77.5229 84.735 77.5927 85.1037 77.5927 85.4835C77.5927 85.8745 77.5201 86.2515 77.3748 86.6145C77.2296 86.972 77.0257 87.2932 76.7632 87.578C76.5063 87.8573 76.1991 88.0779 75.8416 88.2399C75.4897 88.4019 75.1043 88.4829 74.6854 88.4829ZM72.9595 85.4667C72.9595 85.7236 72.9986 85.9722 73.0768 86.2124C73.155 86.4526 73.2667 86.6676 73.4119 86.8575C73.5627 87.0418 73.7443 87.1898 73.9565 87.3015C74.1743 87.4077 74.4201 87.4607 74.6938 87.4607C74.9731 87.4607 75.2216 87.4049 75.4395 87.2932C75.6573 87.1759 75.8388 87.0223 75.9841 86.8324C76.1293 86.6369 76.2382 86.4218 76.3108 86.1872C76.389 85.9471 76.4281 85.7069 76.4281 85.4667C76.4281 85.2098 76.3862 84.964 76.3024 84.7294C76.2242 84.4892 76.1097 84.277 75.9589 84.0927C75.8137 83.9028 75.6322 83.7548 75.4143 83.6486C75.2021 83.5369 74.9619 83.4811 74.6938 83.4811C74.4089 83.4811 74.1576 83.5397 73.9398 83.657C73.7275 83.7687 73.5488 83.9195 73.4035 84.1094C73.2583 84.2993 73.1466 84.5116 73.0684 84.7462C72.9958 84.9808 72.9595 85.2209 72.9595 85.4667Z" fill="#808080"/>
<path d="M83.3306 88.441V84.5367L81.8058 87.444H81.1606L79.6358 84.5367V88.441H78.4796V82.4924H79.7196L81.479 85.8772L83.2552 82.4924H84.4868V88.441H83.3306Z" fill="#808080"/>
<path d="M89.8592 87.4272V88.441H85.7287V82.4924H89.7838V83.5062H86.8849V84.9389H89.39V85.8772H86.8849V87.4272H89.8592Z" fill="#808080"/>
<path d="M94.3046 84.0508C94.2655 84.0117 94.1929 83.9586 94.0868 83.8916C93.9862 83.8246 93.8606 83.7603 93.7097 83.6989C93.5645 83.6375 93.4053 83.5844 93.2322 83.5397C93.059 83.4894 92.8831 83.4643 92.7044 83.4643C92.3916 83.4643 92.1542 83.523 91.9922 83.6403C91.8358 83.7575 91.7576 83.9223 91.7576 84.1346C91.7576 84.2965 91.8079 84.425 91.9084 84.52C92.009 84.6149 92.1598 84.6959 92.3609 84.7629C92.5619 84.83 92.8133 84.9026 93.1149 84.9808C93.5059 85.0757 93.8438 85.193 94.1287 85.3327C94.4191 85.4667 94.6397 85.6454 94.7905 85.8689C94.9469 86.0867 95.0251 86.3771 95.0251 86.7402C95.0251 87.0586 94.9665 87.3323 94.8492 87.5613C94.7319 87.7847 94.5699 87.9662 94.3633 88.1059C94.1566 88.2455 93.922 88.3488 93.6595 88.4159C93.397 88.4773 93.1177 88.508 92.8217 88.508C92.5256 88.508 92.2296 88.4773 91.9336 88.4159C91.6375 88.3544 91.3527 88.2678 91.079 88.1561C90.8053 88.0388 90.5539 87.8992 90.3249 87.7372L90.836 86.7402C90.8863 86.7905 90.9757 86.8575 91.1041 86.9413C91.2326 87.0195 91.389 87.1005 91.5733 87.1843C91.7576 87.2625 91.9587 87.3295 92.1765 87.3853C92.3944 87.4412 92.615 87.4691 92.8384 87.4691C93.1512 87.4691 93.3886 87.4161 93.5506 87.3099C93.7125 87.2038 93.7935 87.053 93.7935 86.8575C93.7935 86.6788 93.7293 86.5391 93.6008 86.4386C93.4724 86.3381 93.2936 86.2515 93.0646 86.1789C92.8356 86.1007 92.5647 86.0169 92.2519 85.9275C91.8777 85.8214 91.5649 85.7041 91.3136 85.5756C91.0622 85.4416 90.8751 85.274 90.7522 85.0729C90.6293 84.8719 90.5679 84.6205 90.5679 84.3189C90.5679 83.9111 90.6629 83.5704 90.8528 83.2967C91.0483 83.0175 91.3108 82.808 91.6403 82.6684C91.9699 82.5232 92.3357 82.4505 92.7379 82.4505C93.0172 82.4505 93.2797 82.4813 93.5254 82.5427C93.7768 82.6041 94.0114 82.6851 94.2292 82.7857C94.447 82.8862 94.6425 82.9951 94.8157 83.1124L94.3046 84.0508Z" fill="#808080"/>
<path d="M42.7291 0H46.0804V34.3508H42.7291V0Z" fill="#06518B"/>
<rect x="49.4317" y="5.02686" width="3.3513" height="34.3508" fill="#426D98"/>
<rect x="56.1343" y="9.21631" width="3.3513" height="34.3508" fill="#739FBA"/>
</svg>
